<?xml version="1.0" encoding="UTF-8"?>
<svg version="1.1" xmlns="http://www.w3.org/2000/svg" width="454" height="180">
<path d="M0 0 C5.35682133 -0.0741205 10.71334462 -0.12858776 16.07055664 -0.16479492 C17.89320067 -0.1798876 19.71580836 -0.20036395 21.53833008 -0.22631836 C24.157155 -0.26268103 26.77550007 -0.27972124 29.39453125 -0.29296875 C30.61811089 -0.31619453 30.61811089 -0.31619453 31.8664093 -0.33988953 C37.57332635 -0.34158978 37.57332635 -0.34158978 39.65058899 1.32144165 C41.77205981 3.96038007 42.75382576 7.04443437 43.8984375 10.19140625 C44.16970963 10.91631256 44.44098175 11.64121887 44.72047424 12.38809204 C45.6127091 14.77687948 46.49367935 17.1696669 47.375 19.5625 C47.99588565 21.22927318 48.61772407 22.89569173 49.24047852 24.56176758 C50.20208695 27.13495494 51.16301785 29.70837626 52.1209259 32.28294373 C55.34115109 40.93777777 58.63272654 49.56466942 61.9375 58.1875 C62.48060294 59.60666924 63.02365385 61.0258584 63.56665039 62.44506836 C67.34300006 72.31025353 71.14704639 82.16446024 75 92 C77.15246507 88.59725692 78.77369246 85.2952893 80.1640625 81.51953125 C80.55924072 80.45130127 80.95441895 79.38307129 81.36157227 78.2824707 C81.77850342 77.13738037 82.19543457 75.99229004 82.625 74.8125 C83.06448975 73.6164917 83.50397949 72.4204834 83.95678711 71.18823242 C87.30448289 62.03000919 90.50345281 52.82341998 93.66333008 43.59887695 C98.71301511 28.91956001 104.18338062 14.39227929 110 0 C115.51757479 -0.02467609 121.03511761 -0.04284856 126.55273438 -0.05493164 C128.43066975 -0.05996763 130.3086012 -0.06679671 132.18652344 -0.07543945 C134.88217132 -0.08753713 137.57776747 -0.09323557 140.2734375 -0.09765625 C141.11619232 -0.10281754 141.95894714 -0.10797882 142.82723999 -0.11329651 C148.77225659 -0.11387171 148.77225659 -0.11387171 151 1 C150.9375 2.75 150.9375 2.75 150 5 C148.25495657 6.15335794 146.48076105 7.07168581 144.59375 7.97265625 C142.65695025 8.98574144 142.65695025 8.98574144 142 12 C141.90489573 13.51143695 141.86512454 15.02669129 141.85955811 16.54110718 C141.85384796 17.47197647 141.84813782 18.40284576 141.84225464 19.36192322 C141.84113678 20.38121414 141.84001892 21.40050507 141.83886719 22.45068359 C141.83390228 23.52573654 141.82893738 24.60078949 141.82382202 25.7084198 C141.80919337 29.2717655 141.80239755 32.83506669 141.796875 36.3984375 C141.79112457 38.87081911 141.78536682 41.3432007 141.77960205 43.81558228 C141.76909036 49.00238249 141.76324864 54.18916719 141.75976562 59.37597656 C141.75427754 66.02641639 141.73024346 72.67658586 141.70179367 79.32697105 C141.68318341 84.43472902 141.67796257 89.54243758 141.67642975 94.65022659 C141.67339956 97.1022618 141.66535877 99.55429606 141.65224457 102.00629807 C141.63521656 105.43453346 141.63705653 108.86226698 141.64355469 112.29052734 C141.62973251 113.81339104 141.62973251 113.81339104 141.6156311 115.36701965 C141.62242107 122.1967289 141.62242107 122.1967289 145 128 C148.06680799 129.82629794 148.06680799 129.82629794 151 131 C151 131.99 151 132.98 151 134 C148.6192532 135.1903734 147.16224293 135.12682203 144.50610352 135.12939453 C143.10939171 135.13412277 143.10939171 135.13412277 141.6844635 135.13894653 C140.67612961 135.1369223 139.66779572 135.13489807 138.62890625 135.1328125 C137.07900246 135.13424759 137.07900246 135.13424759 135.49778748 135.13571167 C133.3096409 135.13639304 131.12149231 135.13454173 128.93334961 135.13037109 C125.5798692 135.12502768 122.22652307 135.13031476 118.87304688 135.13671875 C116.7499997 135.13605785 114.62695262 135.13477646 112.50390625 135.1328125 C110.99444176 135.13584885 110.99444176 135.13584885 109.45448303 135.13894653 C108.52018967 135.13579437 107.5858963 135.13264221 106.62329102 135.12939453 C105.80103531 135.12859894 104.9787796 135.12780334 104.13160706 135.12698364 C102 135 102 135 99 134 C99.125 132.1875 99.125 132.1875 100 130 C105.03571429 127 105.03571429 127 108 127 C108 95.65 108 64.3 108 32 C104.69031011 39.42062429 104.69031011 39.42062429 101.72924805 46.93676758 C101.33170822 48.01271683 100.9341684 49.08866608 100.52458191 50.19721985 C100.10783707 51.33483261 99.69109222 52.47244537 99.26171875 53.64453125 C98.81786331 54.84953781 98.37400787 56.05454437 97.91670227 57.29606628 C96.97945679 59.84114208 96.04423047 62.3869471 95.1105957 64.93334961 C93.93721328 68.13344691 92.75984896 71.33205982 91.58110809 74.53018665 C86.77667617 87.56846113 82.02694222 100.62159547 77.48510742 113.75390625 C75.92360723 118.25345962 74.28260608 122.72258771 72.625 127.1875 C72.25028313 128.20042366 72.25028313 128.20042366 71.86799622 129.23381042 C70.12089249 133.87910751 70.12089249 133.87910751 69 135 C67.35659133 135.09854655 65.7088539 135.12972411 64.0625 135.125 C63.16660156 135.12757813 62.27070312 135.13015625 61.34765625 135.1328125 C59 135 59 135 57 134 C55.99131008 131.78637995 55.09364379 129.59985342 54.234375 127.328125 C53.96437683 126.63078751 53.69437866 125.93345001 53.41619873 125.21498108 C52.52050227 122.89593626 51.63512475 120.57309831 50.75 118.25 C50.12743153 116.63026851 49.50437763 115.01072353 48.88085938 113.39135742 C47.24169023 109.12718179 45.61237662 104.85931387 43.98657227 100.59002686 C43.0152737 98.04009772 42.04206267 95.49090625 41.06835938 92.94189453 C39.20715019 88.06735868 37.35207917 83.19051135 35.5 78.3125 C35.21539917 77.56383667 34.93079834 76.81517334 34.63757324 76.04382324 C31.31866821 67.30299705 28.08040655 58.54348544 25.05505371 49.69599915 C23.15594713 44.21071272 20.81564879 39.07065955 18 34 C16.68351946 37.97414595 16.8749169 41.98791622 16.91015625 46.12109375 C16.91394791 46.9777916 16.91773956 47.83448944 16.92164612 48.71714783 C16.93949528 51.81155271 16.96846156 54.90570412 17 58 C17.01262878 59.24017883 17.02525757 60.48035767 17.03826904 61.75811768 C17.12940073 70.35312467 17.2459359 78.94768284 17.37231445 87.54223633 C17.42810039 91.35272546 17.47799884 95.1632699 17.52671719 98.97385502 C17.56558192 101.93266173 17.60867095 104.89139594 17.65294075 107.85012627 C17.67326022 109.25712326 17.69198978 110.66414417 17.70907402 112.07118416 C17.73312568 114.02025421 17.76374265 115.96923994 17.79467773 117.91821289 C17.81799416 119.57645836 17.81799416 119.57645836 17.84178162 121.26820374 C17.88625447 124.09350577 17.88625447 124.09350577 19 127 C20.86022072 128.23277127 20.86022072 128.23277127 23.0625 129.1875 C24.16271484 129.70376953 24.16271484 129.70376953 25.28515625 130.23046875 C25.85105469 130.48441406 26.41695312 130.73835937 27 131 C27 131.99 27 132.98 27 134 C23.8815675 135.0394775 21.72524414 135.11494838 18.45703125 135.09765625 C17.38388672 135.09443359 16.31074219 135.09121094 15.20507812 135.08789062 C14.08552734 135.07951172 12.96597656 135.07113281 11.8125 135.0625 C10.68134766 135.05798828 9.55019531 135.05347656 8.38476562 135.04882812 C5.58979073 135.03703498 2.7949218 135.0205765 0 135 C-0.33 133.68 -0.66 132.36 -1 131 C-0.44570313 130.70867187 0.10859375 130.41734375 0.6796875 130.1171875 C1.40414063 129.70726562 2.12859375 129.29734375 2.875 128.875 C3.59429688 128.48054687 4.31359375 128.08609375 5.0546875 127.6796875 C8.15224188 125.00509236 8.85191411 121.80535872 9.1825943 117.77393913 C9.26022767 115.06989344 9.2701763 112.37287277 9.25878906 109.66772461 C9.2622937 108.64100143 9.26579834 107.61427826 9.26940918 106.55644226 C9.27819258 103.17167345 9.27238966 99.78711459 9.265625 96.40234375 C9.26697252 94.04635071 9.26891378 91.69035794 9.27142334 89.33436584 C9.27436992 84.4008621 9.27009147 79.46743086 9.26074219 74.53393555 C9.24934174 68.20984351 9.25591392 61.88592112 9.26788712 55.56183529 C9.27511289 50.69855978 9.27281457 45.83532452 9.26763153 40.97204781 C9.26629735 38.64004051 9.26793465 36.30802956 9.27259064 33.97602654 C9.27766823 30.71821275 9.26992829 27.46067415 9.25878906 24.20288086 C9.26283752 23.23910522 9.26688599 22.27532959 9.27105713 21.28234863 C9.25651725 14.90339078 9.25651725 14.90339078 7 9 C5.09318531 7.56739174 5.09318531 7.56739174 2.875 6.6875 C2.15054687 6.36136719 1.42609375 6.03523438 0.6796875 5.69921875 C0.12539063 5.46847656 -0.42890625 5.23773437 -1 5 C-0.67 3.35 -0.34 1.7 0 0 Z " fill="#FDF5E6" transform="translate(19,25)"/>
<path d="M0 0 C7.77494934 7.14454804 14.11409384 17.37493915 15.4375 28 C15.56898438 29.01320312 15.70046875 30.02640625 15.8359375 31.0703125 C17.44118605 47.01578139 15.23105451 62.93137101 5.25 75.875 C-4.43576195 86.8553935 -16.33766482 92.19916381 -30.90234375 93.23828125 C-46.77099539 93.56564757 -60.42411751 89.79572345 -72.3125 78.875 C-83.04289798 67.55689471 -86.05608232 53.11048827 -85.9140625 38.00756836 C-85.5325727 24.74152563 -81.44043239 12.53345782 -72.3125 2.62109375 C-52.12705889 -16.07747335 -21.58476646 -16.84664699 0 0 Z M-46.9375 -0.875 C-51.9809461 8.04802002 -52.72094407 17.35594036 -52.765625 27.41015625 C-52.77132507 28.41404892 -52.77702515 29.41794159 -52.78289795 30.45225525 C-52.79232271 32.57452347 -52.79887187 34.69680616 -52.80273438 36.8190918 C-52.81239447 40.0274493 -52.84342365 43.2351532 -52.875 46.44335938 C-53.55179646 65.93316204 -53.55179646 65.93316204 -45.5625 83 C-41.68767494 86.12138685 -37.49201134 87.13617435 -32.5625 87 C-28.0993662 86.16569368 -25.30708281 84.82507825 -22.25 81.4375 C-12.41017091 61.39340371 -13.24919974 27.19687788 -19.4453125 5.9765625 C-21.07802289 2.00406241 -22.95166635 -1.56024753 -26.5625 -4 C-33.96728523 -6.98580049 -40.89833454 -6.27846384 -46.9375 -0.875 Z " fill="#FDF5E7" transform="translate(254.5625,70)"/>
<path d="M0 0 C1.32 0.33 2.64 0.66 4 1 C4.13534286 10.05293337 3.75741925 18.97859571 3 28 C3.6612085 27.99476318 4.32241699 27.98952637 5.00366211 27.98413086 C7.98159851 27.96342344 10.95951982 27.95035988 13.9375 27.9375 C15.49887695 27.92493164 15.49887695 27.92493164 17.09179688 27.91210938 C18.08115234 27.90888672 19.07050781 27.90566406 20.08984375 27.90234375 C21.46450806 27.89448853 21.46450806 27.89448853 22.86694336 27.88647461 C25 28 25 28 26 29 C26 30.65 26 32.3 26 34 C18.74 34.33 11.48 34.66 4 35 C3.93219895 44.8228074 3.87716933 54.64545915 3.84456348 64.46844769 C3.82891361 69.0297535 3.80768774 73.59089078 3.77368164 78.15209961 C3.74106397 82.55467699 3.72314188 86.95709237 3.71536827 91.35978127 C3.70982908 93.03869998 3.69901235 94.71760991 3.68280983 96.39645958 C3.66100323 98.74977085 3.65803438 101.10241435 3.65942383 103.45581055 C3.648638 104.1484903 3.63785217 104.84117004 3.6267395 105.55484009 C3.65679043 110.26469037 4.61719929 113.61719929 8 117 C12.39889252 117.6774123 16.42195166 117.92888464 20.3359375 115.625 C21.69672484 114.53232318 23.02468247 113.39689986 24.30859375 112.21484375 C24.86675781 111.81394531 25.42492187 111.41304688 26 111 C27.485 111.495 27.485 111.495 29 112 C29 115.21149268 28.56200363 117.33333753 26.46875 119.81640625 C17.8839067 127.70287936 8.70043404 130.38435948 -2.79296875 130.28515625 C-9.78388615 129.66355215 -17.1075464 127.18896594 -22 122 C-26.51803912 115.1583979 -28.25569218 108.767195 -28.22705078 100.50415039 C-28.22734283 99.79111755 -28.22763489 99.07808472 -28.22793579 98.34344482 C-28.22655419 96.0113869 -28.21104896 93.67965763 -28.1953125 91.34765625 C-28.1915782 89.72098464 -28.1887332 88.09431078 -28.18673706 86.46763611 C-28.17913346 82.20480034 -28.15951339 77.94210279 -28.1373291 73.67932129 C-28.11679986 69.3220405 -28.10772026 64.96473718 -28.09765625 60.60742188 C-28.07626413 52.07154436 -28.04110898 43.53580535 -28 35 C-34.93 34.505 -34.93 34.505 -42 34 C-41.67 32.68 -41.34 31.36 -41 30 C-40.26136719 29.86464844 -39.52273438 29.72929688 -38.76171875 29.58984375 C-24.42928565 26.54852694 -16.17526093 18.7351971 -7 8 C-5.60508292 6.41585939 -4.2093943 4.83239737 -2.8125 3.25 C-1.8734533 2.16800709 -0.93525165 1.08527495 0 0 Z " fill="#FDF5E7" transform="translate(312,33)"/>
<path d="M0 0 C1 1 1 1 1.10679626 4.4274292 C1.10357419 5.98907329 1.09475339 7.5507111 1.08178711 9.11230469 C1.07872055 9.96273346 1.07565399 10.81316223 1.07249451 11.68936157 C1.06532107 13.54296548 1.05592167 15.39656175 1.04459953 17.25014496 C1.0272743 20.18363446 1.01693028 23.11706995 1.00868225 26.05059814 C0.98417453 34.39381025 0.94871064 42.73694999 0.90405273 51.08007812 C0.87725907 56.17755907 0.8602214 61.27499748 0.84918404 66.37253571 C0.84297474 68.31659766 0.83297004 70.26065133 0.81910515 72.20467377 C0.799874 74.92654286 0.7929904 77.64818927 0.78881836 80.37011719 C0.78005676 81.17343475 0.77129517 81.97675232 0.76226807 82.80441284 C0.76951767 86.95056979 0.92206495 90.35444721 3 94 C6.01696409 95.84274976 6.01696409 95.84274976 9 97 C9 97.99 9 98.98 9 100 C6.65955621 101.17022189 5.28094286 101.12676545 2.67382812 101.12939453 C1.77950073 101.13254669 0.88517334 101.13569885 -0.03625488 101.13894653 C-1.00397827 101.1369223 -1.97170166 101.13489807 -2.96875 101.1328125 C-3.95999878 101.13376923 -4.95124756 101.13472595 -5.97253418 101.13571167 C-8.07072005 101.13639293 -10.16890801 101.13454243 -12.26708984 101.13037109 C-15.4867016 101.12502209 -18.70617385 101.13031794 -21.92578125 101.13671875 C-23.96093781 101.13605796 -25.99609428 101.13477678 -28.03125 101.1328125 C-29.48283508 101.13584885 -29.48283508 101.13584885 -30.96374512 101.13894653 C-31.85807251 101.13579437 -32.7523999 101.13264221 -33.67382812 101.12939453 C-34.85724792 101.12820114 -34.85724792 101.12820114 -36.0645752 101.12698364 C-38 101 -38 101 -40 100 C-40 99.01 -40 98.02 -40 97 C-34.25 94 -34.25 94 -32 94 C-30.89388699 90.42776347 -30.8667023 87.09361505 -30.85473633 83.3671875 C-30.85137772 82.70978577 -30.8480191 82.05238403 -30.84455872 81.37506104 C-30.83508249 79.20835466 -30.83310748 77.04172579 -30.83203125 74.875 C-30.82881706 73.36572233 -30.82545286 71.85644498 -30.82194519 70.34716797 C-30.81596277 67.18651609 -30.81410445 64.02589152 -30.81469727 60.86523438 C-30.814799 56.81660877 -30.80113126 52.76815809 -30.78392506 48.71957397 C-30.77280553 45.60375158 -30.77077802 42.48797155 -30.77130699 39.37213135 C-30.7701274 37.87940873 -30.76570679 36.38668499 -30.75797462 34.89398193 C-30.74817276 32.8068006 -30.75105301 30.72000002 -30.75708008 28.6328125 C-30.75494255 26.85221436 -30.75494255 26.85221436 -30.75276184 25.03564453 C-30.9922639 22.09498553 -31.38617237 20.43815004 -33 18 C-34.69950428 16.89506665 -34.69950428 16.89506665 -36.625 16.25 C-37.73875 15.8375 -38.8525 15.425 -40 15 C-39.9440918 13.17480469 -39.9440918 13.17480469 -39 11 C-36.5942622 9.84444414 -34.41987906 8.99912825 -31.89453125 8.203125 C-30.81929451 7.84537994 -30.81929451 7.84537994 -29.72233582 7.48040771 C-28.20247057 6.97859744 -26.67992479 6.48484537 -25.1550293 5.99853516 C-22.83289809 5.25651804 -20.52089893 4.48803127 -18.20898438 3.71484375 C-16.72969148 3.23016609 -15.2498882 2.7470429 -13.76953125 2.265625 C-13.0818013 2.03756165 -12.39407135 1.80949829 -11.6855011 1.57452393 C-7.68015116 0.31063628 -4.19882394 -0.33256436 0 0 Z " fill="#FDF5E6" transform="translate(383,59)"/>
<path d="M0 0 C4.76987291 3.24757304 9.08948476 7.45595429 10.9375 13 C11.71193365 19.43668628 10.87522012 24.74589089 6.9375 30 C2.16424798 34.37186491 -2.27162377 36.38659078 -8.875 36.27734375 C-14.2246611 35.59908315 -18.49988755 32.97067555 -22 28.9375 C-25.74812078 23.59926738 -25.70018427 18.3325591 -25.0625 12 C-23.10188851 6.17144302 -19.04462368 2.61195875 -13.75 -0.25 C-8.86613635 -1.61293869 -4.75359722 -1.55219501 0 0 Z " fill="#FDF5E7" transform="translate(430.0625,127)"/>
<path d="M0 0 C3.72218048 3.13553247 6.45542644 6.36627933 8 11 C8.60884172 18.3061006 7.15815811 22.01797455 2.5625 27.8125 C-2.41107237 31.592415 -7.98480989 31.73244324 -14 31 C-18.37084489 29.68501077 -21.28254544 27.71745456 -24.5 24.5 C-26.71857944 19.32331463 -26.76102279 14.54785613 -26 9 C-23.22762956 3.3562459 -20.20436455 0.79813199 -14.375 -1.3125 C-9.33239928 -2.39238656 -4.75282547 -2.04464083 0 0 Z " fill="#FDF5E7" transform="translate(377,19)"/>
<path d="M0 0 C1.32 0.66 2.64 1.32 4 2 C4 2.99 4 3.98 4 5 C3.01 5.33 2.02 5.66 1 6 C0.01 5.34 -0.98 4.68 -2 4 C-1.34 2.68 -0.68 1.36 0 0 Z " fill="#FAF9F1" transform="translate(42,154)"/>
<path d="M0 0 C2.475 0.99 2.475 0.99 5 2 C5 2.99 5 3.98 5 5 C3.02 5.33 1.04 5.66 -1 6 C-0.649375 5.38125 -0.29875 4.7625 0.0625 4.125 C0.371875 3.42375 0.68125 2.7225 1 2 C0.67 1.34 0.34 0.68 0 0 Z " fill="#FBFAF5" transform="translate(387,154)"/>
<path d="M0 0 C0.66 0.33 1.32 0.66 2 1 C2 1.99 2 2.98 2 4 C-0.70879335 5.35439668 -3.00933268 5.06501451 -6 5 C-2.25 1.125 -2.25 1.125 0 0 Z " fill="#FDFCF6" transform="translate(168,155)"/>
<path d="M0 0 C2.97 0.495 2.97 0.495 6 1 C5.67 2.32 5.34 3.64 5 5 C4.01 4.67 3.02 4.34 2 4 C2 3.34 2 2.68 2 2 C1.34 1.34 0.68 0.68 0 0 Z " fill="#FCFBEF" transform="translate(164,25)"/>
</svg>
